<?xml version="1.0" encoding="utf-8"?>
<!-- Generator: Adobe Illustrator 21.1.0, SVG Export Plug-In . SVG Version: 6.00 Build 0)  -->
<svg version="1.1" id="Layer_1" xmlns="http://www.w3.org/2000/svg" xmlns:xlink="http://www.w3.org/1999/xlink" x="0px" y="0px"
	 viewBox="0 0 70 70" style="enable-background:new 0 0 70 70;" xml:space="preserve">
<style type="text/css">
	.st0{fill-rule:evenodd;clip-rule:evenodd;fill:#434343;}
	.st1{fill:none;stroke:#434343;stroke-miterlimit:10;}
</style>
<g>
	<path class="st0" d="M22.4,29l4.3,2.1v5L22.4,34V29L22.4,29z M42.4,10.9l10,15.8l-18.7,5.2c-3.2-5.1-6.5-10.2-9.7-15.2
		c-2.4,3-4.9,6.1-7.4,9.1c0.4,0.1,0.8,0.4,1.2,0.5l0,8.3l13.8,7v-9.7l2,0.9l16.7-4.6c0,3.1,0,6.8,0,9.6l-10.4,2.9v-7.7L36.2,34v7.7
		l-3.8,1.1c-5-2.6-10.1-5.2-15.1-7.7c0-2.8,0-5.5,0-8.2c-0.6-0.2-1.1-0.5-1.7-0.7l8.5-10.6L42.4,10.9L42.4,10.9z M47.4,30.8L43.3,32
		v4.2l4.1-1.2V30.8L47.4,30.8z"/>
	<circle class="st1" cx="35.1" cy="35.2" r="33.9"/>
</g>
</svg>
