<?xml version="1.0" encoding="UTF-8"?>
<svg xmlns="http://www.w3.org/2000/svg" xmlns:xlink="http://www.w3.org/1999/xlink" width="150px" height="150px" viewBox="0 0 150 149" version="1.1">
<g id="surface1">
<path style=" stroke:none;fill-rule:nonzero;fill:rgb(100%,0%,0%);fill-opacity:1;" d="M 23.355469 6.628906 L 23.355469 9.28125 L 68.59375 9.28125 L 72.863281 11.464844 C 76 13.058594 77.601562 14.449219 79.203125 16.769531 C 82.074219 21.011719 82.738281 23.664062 82.738281 30.621094 L 82.738281 36.453125 L 74.066406 36.453125 C 65.660156 36.453125 65.257812 36.519531 63.722656 38.113281 C 62.253906 39.503906 62.054688 40.300781 62.054688 44.539062 L 62.054688 49.378906 L 51.3125 56.933594 C 40.234375 64.757812 37.367188 67.671875 35.898438 72.378906 C 35.296875 74.367188 34.832031 74.898438 33.5625 74.898438 C 32.027344 74.898438 32.027344 74.898438 32.027344 83.515625 L 32.027344 92.128906 L 127.445312 92.128906 L 127.445312 74.898438 L 125.578125 74.898438 C 123.910156 74.898438 123.644531 74.566406 122.910156 71.914062 C 121.773438 67.738281 118.773438 64.757812 107.496094 56.671875 L 97.554688 49.578125 L 97.285156 44.738281 C 97.019531 38.707031 95.351562 36.453125 91.28125 36.453125 L 88.746094 36.453125 L 88.746094 32.277344 C 88.746094 18.957031 84.476562 11.003906 74.734375 5.898438 C 71.730469 4.308594 71.53125 4.308594 47.574219 4.109375 L 23.355469 3.910156 Z M 91.414062 45.070312 L 91.414062 48.386719 L 82.738281 48.386719 L 82.738281 53.6875 L 93.617188 53.6875 L 104.425781 61.375 C 112.300781 66.945312 115.636719 69.726562 116.636719 71.515625 C 117.4375 72.910156 118.105469 74.234375 118.105469 74.5 C 118.105469 74.699219 109.5625 74.898438 99.089844 74.898438 L 80.070312 74.898438 L 80.070312 80.199219 L 121.441406 80.199219 L 121.441406 86.828125 L 37.367188 86.828125 L 37.367188 80.199219 L 52.714844 80.199219 L 52.714844 74.898438 L 47.042969 74.898438 C 42.703125 74.898438 41.371094 74.699219 41.371094 73.96875 C 41.371094 71.78125 45.171875 68.136719 54.714844 61.242188 C 63.722656 54.683594 65.390625 53.753906 67.726562 53.6875 L 70.460938 53.6875 L 70.195312 51.035156 C 69.996094 48.980469 69.660156 48.386719 68.660156 48.386719 C 67.59375 48.386719 67.394531 47.855469 67.394531 45.070312 L 67.394531 41.757812 L 91.414062 41.757812 Z M 91.414062 45.070312 "/>
<path style=" stroke:none;fill-rule:nonzero;fill:rgb(100%,0%,0%);fill-opacity:1;" d="M 23.355469 18.226562 L 23.355469 21.210938 L 67.261719 21.210938 L 68.996094 23.265625 C 70.460938 24.921875 70.730469 25.980469 70.730469 29.230469 L 70.730469 33.140625 L 76.066406 33.140625 L 76.066406 28.5 C 76.066406 25.652344 75.667969 23.066406 75.066406 21.9375 C 73.730469 19.355469 70.460938 16.769531 67.527344 15.90625 C 66.058594 15.511719 56.515625 15.246094 44.238281 15.246094 L 23.355469 15.246094 Z M 23.355469 18.226562 "/>
<path style=" stroke:none;fill-rule:nonzero;fill:rgb(100%,0%,0%);fill-opacity:1;" d="M 59.519531 99.554688 C 58.453125 100.878906 57.25 105.585938 57.519531 107.375 C 57.71875 109.296875 60.652344 110.027344 61.855469 108.570312 C 63.191406 106.976562 64.589844 101.078125 63.921875 99.886719 C 63.191406 98.558594 60.519531 98.359375 59.519531 99.554688 Z M 59.519531 99.554688 "/>
<path style=" stroke:none;fill-rule:nonzero;fill:rgb(100%,0%,0%);fill-opacity:1;" d="M 77.46875 99.6875 C 76.199219 101.210938 76.800781 108.699219 78.269531 109.628906 C 79.070312 110.160156 79.738281 110.160156 80.605469 109.628906 C 81.539062 109.03125 81.738281 107.90625 81.738281 103.996094 C 81.738281 99.222656 81.671875 99.089844 80.003906 98.890625 C 79.070312 98.757812 77.9375 99.15625 77.46875 99.6875 Z M 77.46875 99.6875 "/>
<path style=" stroke:none;fill-rule:nonzero;fill:rgb(100%,0%,0%);fill-opacity:1;" d="M 95.085938 100.21875 C 94.882812 101.078125 95.285156 103.398438 95.953125 105.386719 C 97.085938 108.699219 97.421875 109.03125 99.289062 109.230469 C 102.222656 109.496094 102.625 108.171875 101.023438 103.132812 C 99.753906 99.421875 99.554688 99.089844 97.554688 98.890625 C 95.820312 98.691406 95.417969 98.957031 95.085938 100.21875 Z M 95.085938 100.21875 "/>
<path style=" stroke:none;fill-rule:nonzero;fill:rgb(100%,0%,0%);fill-opacity:1;" d="M 54.582031 116.125 C 53.246094 117.183594 51.179688 123.414062 51.710938 124.808594 C 52.378906 126.332031 54.046875 126.730469 55.714844 125.667969 C 56.648438 125.074219 57.449219 123.414062 58.050781 120.964844 C 58.917969 117.382812 58.917969 117.117188 57.71875 116.257812 C 56.183594 115.128906 55.917969 115.128906 54.582031 116.125 Z M 54.582031 116.125 "/>
<path style=" stroke:none;fill-rule:nonzero;fill:rgb(100%,0%,0%);fill-opacity:1;" d="M 101.421875 116.65625 C 100.621094 117.449219 100.15625 118.445312 100.355469 118.976562 C 100.488281 119.4375 101.023438 121.09375 101.488281 122.621094 C 102.492188 125.800781 104.691406 127.324219 106.429688 125.933594 C 108.296875 124.34375 106.894531 117.914062 104.292969 116.191406 C 103.023438 115.328125 102.691406 115.394531 101.421875 116.65625 Z M 101.421875 116.65625 "/>
<path style=" stroke:none;fill-rule:nonzero;fill:rgb(100%,0%,0%);fill-opacity:1;" d="M 77.800781 117.050781 C 77.070312 117.714844 76.734375 119.304688 76.734375 121.957031 C 76.734375 124.609375 77.070312 126.199219 77.800781 126.863281 C 79.003906 128.121094 79.136719 128.121094 80.804688 127.261719 C 81.871094 126.664062 82.074219 125.800781 82.074219 121.957031 C 82.074219 118.113281 81.871094 117.25 80.804688 116.65625 C 79.136719 115.792969 79.003906 115.792969 77.800781 117.050781 Z M 77.800781 117.050781 "/>
<path style=" stroke:none;fill-rule:nonzero;fill:rgb(100%,0%,0%);fill-opacity:1;" d="M 47.574219 135.015625 C 46.976562 136.40625 46.507812 138.726562 46.441406 140.183594 C 46.375 142.703125 46.507812 142.835938 48.511719 143.035156 C 50.511719 143.234375 50.644531 143.035156 51.980469 139.523438 C 52.78125 137.46875 53.378906 135.480469 53.378906 135.015625 C 53.378906 133.6875 51.914062 132.5625 50.179688 132.5625 C 49.042969 132.5625 48.375 133.160156 47.574219 135.015625 Z M 47.574219 135.015625 "/>
<path style=" stroke:none;fill-rule:nonzero;fill:rgb(100%,0%,0%);fill-opacity:1;" d="M 106.292969 133.554688 C 105.828125 134.816406 106.359375 137.664062 107.695312 140.78125 C 108.429688 142.570312 109.097656 143.167969 110.296875 143.167969 C 113.167969 143.167969 113.699219 141.710938 112.433594 137.730469 C 111.765625 135.808594 110.964844 133.820312 110.566406 133.359375 C 109.699219 132.230469 106.828125 132.363281 106.292969 133.554688 Z M 106.292969 133.554688 "/>
<path style=" stroke:none;fill-rule:nonzero;fill:rgb(100%,0%,0%);fill-opacity:1;" d="M 77.800781 134.949219 C 76.667969 136.074219 76.335938 142.769531 77.335938 144.359375 C 77.667969 144.890625 78.738281 145.15625 79.804688 145.023438 C 81.671875 144.824219 81.738281 144.757812 81.941406 140.316406 C 82.207031 134.417969 80.539062 132.230469 77.800781 134.949219 Z M 77.800781 134.949219 "/>
</g>
</svg>
